# Blender v2.77 (sub 0) OBJ File: 'untitled3.blend'
# www.blender.org
mtllib cube_logo.mtl
o Cube
v 1.000000 -1.000000 -1.000000
v 1.000000 -1.000000 1.000000
v -1.000000 -1.000000 1.000000
v -1.000000 -1.000000 -1.000000
v 1.000000 1.000000 -0.999999
v 0.999999 1.000000 1.000001
v -1.000000 1.000000 1.000000
v -1.000000 1.000000 -1.000000
vt 0.5146 0.4713
vt 0.8318 0.6889
vt 0.5145 0.8949
vt 0.1735 0.6804
vt 0.5290 0.0568
vt 0.5145 0.4713
vt 0.1740 0.6796
vt -0.0371 0.4683
vt 0.5146 0.4714
vt 0.9514 0.0566
vt 0.8195 0.2749
vt 0.8314 0.6885
vt 0.7957 -0.7642
vt 0.6326 -0.7881
vt 0.6326 -0.9512
vt 0.7837 -0.9379
vt 0.3212 -0.9756
vt 0.3212 -0.8124
vt 0.1581 -0.8124
vt 0.1581 -0.9756
vt 0.3797 -0.7953
vt 0.3797 -0.9584
vt 0.5428 -0.9584
vt 0.5309 -0.7819
vn 0.0000 1.0000 0.0000
vn 1.0000 0.0000 0.0000
vn 0.0000 0.0000 -1.0000
vn 0.0000 -1.0000 0.0000
vn -0.0000 -0.0000 1.0000
vn -1.0000 -0.0000 -0.0000
usemtl Cube
s off
f 5/1/1 8/2/1 7/3/1 6/4/1
f 1/5/2 5/6/2 6/7/2 2/8/2
f 5/9/3 1/10/3 4/11/3 8/12/3
usemtl Cube_cube_text_big.png.001
f 1/13/4 2/14/4 3/15/4 4/16/4
f 2/17/5 6/18/5 7/19/5 3/20/5
f 3/21/6 7/22/6 8/23/6 4/24/6
