# Blender v2.77 (sub 0) OBJ File: 'untitled3.blend'
# www.blender.org
mtllib cube.mtl
o Cube
v 1.000000 -1.000000 -1.000000
v 1.000000 -1.000000 1.000000
v -1.000000 -1.000000 1.000000
v -1.000000 -1.000000 -1.000000
v 1.000000 1.000000 -0.999999
v 0.999999 1.000000 1.000001
v -1.000000 1.000000 1.000000
v -1.000000 1.000000 -1.000000
vt 0.4979 0.4511
vt 0.9511 0.7619
vt 0.4978 1.0562
vt 0.0107 0.7497
vt 0.5185 -0.1753
vt 0.0114 0.7486
vt -0.2902 0.4467
vt 0.4980 0.4511
vt 1.1219 -0.1756
vt 0.9335 0.1412
vt 0.9506 0.7613
vt 0.8995 -1.3481
vt 0.6665 -1.3481
vt 0.6665 -1.5812
vt 0.8824 -1.5914
vt 0.2217 -1.6159
vt 0.2217 -1.3829
vt -0.0114 -1.3829
vt -0.0114 -1.6159
vt 0.3052 -1.3584
vt 0.3052 -1.5914
vt 0.5383 -1.5914
vt 0.5212 -1.3686
vn 0.0000 1.0000 0.0000
vn 1.0000 0.0000 0.0000
vn 0.0000 0.0000 -1.0000
vn 0.0000 -1.0000 0.0000
vn -0.0000 -0.0000 1.0000
vn -1.0000 -0.0000 -0.0000
usemtl Cube
s off
f 5/1/1 8/2/1 7/3/1 6/4/1
f 1/5/2 5/1/2 6/6/2 2/7/2
f 5/8/3 1/9/3 4/10/3 8/11/3
usemtl Cube_cube_text_big.png.001
f 1/12/4 2/13/4 3/14/4 4/15/4
f 2/16/5 6/17/5 7/18/5 3/19/5
f 3/20/6 7/21/6 8/22/6 4/23/6
