<svg xmlns="http://www.w3.org/2000/svg" viewBox="0 0 32.3 32.3">
  <defs>
    <style>
      .cls-1 {
        fill: #cc8011;
      }
    </style>
  </defs>
  <title>FG_UI01_assets</title>
  <g id="menu">
    <g>
      <path class="cls-1" d="M31.86,25.38,19.69,13.21a10.11,10.11,0,1,0-6.47,6.47l3,3h1.93v2.52h2.52v2.52h2.52v1.93l2.17,2.17a1.52,1.52,0,0,0,1.07.44h4.33a1.52,1.52,0,0,0,1.51-1.51V26.45A1.52,1.52,0,0,0,31.86,25.38ZM2,10.09a8.08,8.08,0,1,1,8.08,8.08A8.08,8.08,0,0,1,2,10.09ZM30.28,30.28H26.66l-1.43-1.43V25.74H22.71V23.22H20.19V20.69H17.07L15.18,18.8a10.16,10.16,0,0,0,3.62-3.62L30.28,26.66Z"/>
      <path class="cls-1" d="M8.33,10.58a2.26,2.26,0,1,1,2.26-2.26A2.26,2.26,0,0,1,8.33,10.58Z"/>
    </g>
  </g>
</svg>
