<svg xmlns="http://www.w3.org/2000/svg" viewBox="0 0 59.74 60">
  <defs>
    <style>
      .cls-1 {
        fill: #fff;
      }
    </style>
  </defs>
  <title>FG_UI01_assets</title>
  <g id="menu">
    <g>
      <g>
        <path class="cls-1" d="M1.33,13.75V.12H11V2.68H4.23V5.56h6.6V8.11H4.23v5.64Z"/>
        <path class="cls-1" d="M24.59,8.19V0h2.94V8.09a3,3,0,0,0,3.21,3.21,2.94,2.94,0,0,0,3.19-3.21V0h3V8.17c0,3.39-2,5.7-6.15,5.7S24.59,11.54,24.59,8.19Z"/>
        <path class="cls-1" d="M52.85,13.63V2.55h-4V0H59.74V2.55h-4V13.63Z"/>
        <path class="cls-1" d="M0,32.81V24.62H2.94v8.09a3,3,0,0,0,3.21,3.21,2.94,2.94,0,0,0,3.19-3.21V24.62h3v8.17c0,3.39-2,5.7-6.15,5.7S0,36.16,0,32.81Z"/>
        <path class="cls-1" d="M32.93,38.37l-2.68-4.84H28.13v4.84h-2.9V24.74H31.6a4.24,4.24,0,0,1,4.58,4.39,3.91,3.91,0,0,1-3,4l3.06,5.19Zm.29-9.23a1.85,1.85,0,0,0-2-1.84h-3V31h3A1.85,1.85,0,0,0,33.21,29.14Z"/>
        <path class="cls-1" d="M49.48,38.67V25h9.64V27.6H52.38v2.88H59V33h-6.6v3.08h6.74v2.55Z"/>
      </g>
      <rect class="cls-1" x="0.7" y="50.56" width="58.43" height="9.44"/>
    </g>
  </g>
</svg>
