<svg xmlns="http://www.w3.org/2000/svg" viewBox="0 0 33.18 33.33">
  <defs>
    <style>
      .cls-1 {
        fill: #fff;
      }
    </style>
  </defs>
  <title>FG_UI01_assets</title>
  <g id="menu">
    <g>
      <g>
        <path class="cls-1" d="M.74,7.64V.07H6.09V1.49H2.35v1.6H6V4.5H2.35V7.64Z"/>
        <path class="cls-1" d="M13.66,4.55V0H15.3V4.49a1.64,1.64,0,0,0,1.78,1.78,1.63,1.63,0,0,0,1.77-1.78V0h1.65V4.54c0,1.88-1.11,3.17-3.42,3.17S13.66,6.41,13.66,4.55Z"/>
        <path class="cls-1" d="M29.36,7.57V1.42H27.15V0h6V1.42H31V7.57Z"/>
        <path class="cls-1" d="M0,18.23V13.68H1.63v4.49A1.64,1.64,0,0,0,3.42,20a1.63,1.63,0,0,0,1.77-1.78V13.68H6.83v4.54c0,1.88-1.11,3.17-3.42,3.17S0,20.09,0,18.23Z"/>
        <path class="cls-1" d="M18.29,21.31,16.8,18.62H15.62v2.69H14V13.74h3.54a2.36,2.36,0,0,1,2.54,2.44,2.17,2.17,0,0,1-1.66,2.25l1.7,2.88Zm.16-5.13a1,1,0,0,0-1.13-1H15.62v2h1.69A1,1,0,0,0,18.45,16.18Z"/>
        <path class="cls-1" d="M27.49,21.48V13.91h5.36v1.42H29.1v1.6h3.67v1.42H29.1v1.71h3.74v1.42Z"/>
      </g>
      <rect class="cls-1" x="0.39" y="28.08" width="32.46" height="5.25"/>
    </g>
  </g>
</svg>
