<svg xmlns="http://www.w3.org/2000/svg" viewBox="0 0 471.6 72.17">
  <defs>
    <style>
      .cls-1 {
        fill: #fff;
      }
    </style>
  </defs>
  <title>FG_UI01_assets</title>
  <g id="location">
    <g>
      <polygon id="polygon16" class="cls-1" points="349.45 2.14 374.48 2.14 389.97 55.05 390.34 55.05 389.42 2.14 406.1 2.14 406.1 68.82 382.11 68.82 365.46 14.1 365.11 14.1 366.03 68.82 349.45 68.82 349.45 2.14"/>
      <polygon id="polygon18" class="cls-1" points="77.86 69.52 59.66 69.52 72.16 2.14 102.13 2.14 114.57 69.52 96.45 69.52 87.47 8.38 87.09 8.38 77.86 69.52"/>
      <polygon id="polygon20" class="cls-1" points="145.67 8.94 145.31 8.94 144.88 69.52 128.01 69.52 129.5 2.14 156.99 2.14 165.31 53.65 165.67 53.65 174 2.14 201.48 2.14 202.94 69.52 186.1 69.52 185.65 8.94 185.3 8.94 174.04 69.52 156.94 69.52 145.67 8.94"/>
      <path id="path22" class="cls-1" d="M31.29,50.51a8.87,8.87,0,0,1,.15,5C30.87,57.75,29.36,60,24.87,60c-4.22,0-6.79-2.42-6.79-6.12V47.39H0v5.22c0,15,11.83,19.55,24.5,19.55,12.19,0,22.22-4.17,23.82-15.39a33.4,33.4,0,0,0-.07-11.07C45.41,31.6,19.83,27.39,17.93,19.5a8.94,8.94,0,0,1-.07-3.55c.47-2.15,1.94-4.52,6.16-4.52,3.94,0,6.27,2.43,6.27,6.11V21.7h16.8V17c0-14.68-13.17-17-22.72-17C12.38,0,2.58,4,.79,14.93A23.45,23.45,0,0,0,.95,24C3.89,37.81,27.82,41.79,31.29,50.51Z"/>
      <path id="path24" class="cls-1" d="M250.4,50.39a8.63,8.63,0,0,1,.15,4.93C250,57.55,248.5,59.8,244,59.8c-4.17,0-6.71-2.42-6.71-6V47.3H219.44l0,5.15c0,14.87,11.72,19.36,24.27,19.36,12.06,0,22-4.11,23.57-15.24a32.38,32.38,0,0,0-.06-10.95c-2.83-14-28.15-18.14-30-26a8.47,8.47,0,0,1-.06-3.49c.48-2.16,1.93-4.48,6.1-4.48,3.9,0,6.18,2.38,6.18,6v4.12h16.68V17.17C266.05,2.65,253,.37,243.54.37c-11.85,0-21.57,3.91-23.32,14.8a23.19,23.19,0,0,0,.16,9C223.27,37.8,247,41.76,250.4,50.39Z"/>
      <path id="path26" class="cls-1" d="M307,59.44c4.68,0,6.14-3.24,6.46-4.89a14,14,0,0,0,.16-2.58V2.11h17V50.45c0,1.24-.09,3.79-.14,4.42-1.2,12.58-11.14,16.66-23.52,16.66s-22.35-4.08-23.53-16.66c-.06-.64-.18-3.19-.14-4.42V2.11h17V52a16.13,16.13,0,0,0,.16,2.58C300.87,56.21,302.29,59.44,307,59.44Z"/>
      <path id="path28" class="cls-1" d="M447.57,58.73c4.88,0,6.59-3.09,6.9-4.88a16.51,16.51,0,0,0,.15-2.56V41.51h-6.92V31.67H471.6V49.76c0,1.26,0,2.19-.24,4.44-1.12,12.26-11.76,16.63-23.7,16.63s-22.58-4.37-23.72-16.63c-.19-2.25-.22-3.18-.24-4.44V21.38c0-1.2.15-3.32.28-4.44C425.48,4.35,435.69.29,447.66.29s22.41,4,23.65,16.65a38.31,38.31,0,0,1,.15,4.44v2.25h-17V19.85a15.54,15.54,0,0,0-.22-2.56c-.29-1.49-1.58-4.91-6.72-4.91-4.91,0-6.35,3.24-6.71,4.91a15.12,15.12,0,0,0-.29,3.18V51.29a14.19,14.19,0,0,0,.17,2.56c.29,1.8,2,4.88,6.87,4.88Z"/>
    </g>
  </g>
</svg>
