<svg id="home" xmlns="http://www.w3.org/2000/svg" viewBox="0 0 157.84 159.5">
  <defs>
    <style>
      .cls-1 {
        fill: #d9d9d2;
      }
    </style>
  </defs>
  <title>FG_UI01_assets</title>
  <g>
    <path class="cls-1" d="M3,22.77V.2H19V4.43H7.81V9.2H18.74v4.23H7.81v9.34Z"/>
    <path class="cls-1" d="M70.59,13.57V0h4.87V13.4c0,3.15,1.83,5.31,5.31,5.31s5.28-2.17,5.28-5.31V0H91V13.53C91,19.15,87.64,23,80.77,23S70.59,19.12,70.59,13.57Z"/>
    <path class="cls-1" d="M146.44,22.57V4.23h-6.6V0h18V4.23h-6.56V22.57Z"/>
    <path class="cls-1" d="M.81,83.39V69.82H5.68v13.4c0,3.15,1.83,5.31,5.31,5.31s5.28-2.17,5.28-5.31V69.82h4.91V83.36C21.18,89,17.86,92.8,11,92.8S.81,88.94.81,83.39Z"/>
    <path class="cls-1" d="M84.39,92.6l-4.43-8H76.44v8h-4.8V70H82.19c4.7,0,7.58,3.08,7.58,7.27A6.48,6.48,0,0,1,84.83,84l5.08,8.59Zm.47-15.29c0-1.89-1.45-3-3.38-3h-5v6.09h5C83.41,80.35,84.87,79.2,84.87,77.3Z"/>
    <path class="cls-1" d="M140.86,93.1V70.53h16v4.23H145.66v4.77h10.93v4.23H145.66v5.11h11.17V93.1Z"/>
    <g>
      <path class="cls-1" d="M0,150.58c0-5.44,4.12-8.89,9.15-8.89a8,8,0,0,1,7.11,3.84l-3,1.65a4.87,4.87,0,0,0-4.07-2.24,5.65,5.65,0,0,0,0,11.28,5.8,5.8,0,0,0,3.66-1.31v-2.06H8.27v-3.19h8.19v6.6a9.54,9.54,0,0,1-7.32,3.25C4.12,159.5,0,156,0,150.58Z"/>
      <path class="cls-1" d="M19.37,159.16V142H31.53v3.22H23v3.63h8.32v3.22H23v3.89h8.5v3.22Z"/>
      <path class="cls-1" d="M46.24,159.16,38,148v11.21H34.39V142h3.76l8,10.79V142h3.66v17.18Z"/>
      <path class="cls-1" d="M53.16,159.16V142H65.32v3.22h-8.5v3.63h8.32v3.22H56.82v3.89h8.5v3.22Z"/>
      <path class="cls-1" d="M77.89,159.16l-3.37-6.11H71.84v6.11H68.18V142h8c3.58,0,5.77,2.34,5.77,5.54a4.93,4.93,0,0,1-3.76,5.1l3.86,6.54Zm.36-11.64a2.33,2.33,0,0,0-2.58-2.32H71.84v4.64h3.84A2.33,2.33,0,0,0,78.25,147.52Z"/>
      <path class="cls-1" d="M96.59,159.16l-1.06-2.91H88.17l-1.08,2.91H82.91L89.56,142h4.59l6.62,17.18Zm-4.74-13.52L89.17,153h5.36Z"/>
      <path class="cls-1" d="M104.68,159.16v-14h-5V142h13.71v3.22h-5v14Z"/>
      <path class="cls-1" d="M115.7,159.16V142h3.66v17.18Z"/>
      <path class="cls-1" d="M121.94,150.58a9,9,0,1,1,9,8.89A8.63,8.63,0,0,1,121.94,150.58Zm14.19,0c0-3.22-2.06-5.64-5.23-5.64s-5.2,2.42-5.2,5.64,2,5.64,5.2,5.64S136.13,153.78,136.13,150.58Z"/>
      <path class="cls-1" d="M154.31,159.16,146.12,148v11.21h-3.66V142h3.76l8,10.79V142h3.66v17.18Z"/>
    </g>
  </g>
</svg>
