<svg xmlns="http://www.w3.org/2000/svg" viewBox="0 0 33.18254 33.32806">
    <defs>
        <style>.cls-1{fill:#fff;}</style>
    </defs>
    <title>logo</title>
    <g id="Слой_2" data-name="Слой 2">
        <g id="home">
            <path class="cls-1"
                  d="M.73752,7.63657V.06806H6.09338V1.48644H2.34886V3.08637H6.01392V4.50476H2.34886V7.63657Z"/>
            <path class="cls-1"
                  d="M13.6612,4.55019V0h1.634V4.49354A1.63984,1.63984,0,0,0,17.07664,6.275a1.6312,1.6312,0,0,0,1.77026-1.78149V0h1.64518V4.53879c0,1.88376-1.11193,3.16584-3.41545,3.16584C14.77331,7.70462,13.6612,6.41114,13.6612,4.55019Z"/>
            <path class="cls-1" d="M29.35856,7.56851V1.41838H27.14591V0h6.03663V1.41838H30.9813V7.56851Z"/>
            <path class="cls-1"
                  d="M0,18.22627V13.67607H1.634v4.49354A1.63984,1.63984,0,0,0,3.41545,19.9511a1.6312,1.6312,0,0,0,1.77026-1.78149V13.67607H6.8309v4.53879c0,1.88376-1.11193,3.16584-3.41545,3.16584C1.11212,21.3807,0,20.08721,0,18.22627Z"/>
            <path class="cls-1"
                  d="M18.29033,21.31264,16.80389,18.6234H15.62371v2.68924H14.01237V13.74413h3.54035a2.357,2.357,0,0,1,2.54172,2.43963,2.17176,2.17176,0,0,1-1.65677,2.24668l1.70221,2.8822Zm.15874-5.12887a1.02766,1.02766,0,0,0-1.13474-1.02125H15.62371V17.205h1.69062A1.02756,1.02756,0,0,0,18.44907,16.18377Z"/>
            <path class="cls-1"
                  d="M27.48629,21.48041V13.91191h5.35586v1.41838H29.09763v1.59993h3.66506V18.3486H29.09763V20.062h3.74452v1.41838Z"/>
            <rect class="cls-1" x="0.3868" y="28.08296" width="32.45535" height="5.24511"/>
        </g>
    </g>
</svg>