<svg xmlns="http://www.w3.org/2000/svg" viewBox="0 0 650.66797 249.2002">
    <defs>
        <style>.cls-1{fill:#9e9d8f;}</style>
    </defs>
    <title>text</title>
    <g id="Слой_2" data-name="Слой 2">
        <g id="home">
            <path class="cls-1"
                  d="M154.67676,49.21484h0c5.73633,5.29883,13.02979,7.98535,21.67822,7.98535a29.95732,29.95732,0,0,0,9.4751-1.45117,22.65267,22.65267,0,0,0,7.40479-3.98047,31.87486,31.87486,0,0,0,4.95557-5.082,27.225,27.225,0,0,0,3.32227-5.68945l.3877-.89648-15.8291-7.27832-.34766,1.06934a10.492,10.492,0,0,1-3.58936,5.00488A9.01191,9.01191,0,0,1,176.355,40.96a11.18787,11.18787,0,0,1-8.63037-3.52344,12.31474,12.31474,0,0,1-3.32959-8.83594,12.32028,12.32028,0,0,1,3.32959-8.83691,11.19,11.19,0,0,1,8.63037-3.52344,9.00655,9.00655,0,0,1,5.7793,2.06445,10.49122,10.49122,0,0,1,3.58936,5.00488l.34961,1.07324,15.83057-7.36816-.39355-.89648a28.83878,28.83878,0,0,0-9.06934-11.43359C188.36035,1.57617,182.94824,0,176.355,0c-8.69971,0-16.00684,2.67383-21.71826,7.94531-5.73437,5.292-8.6416,12.24121-8.6416,20.65527C145.99512,36.96,148.916,43.89648,154.67676,49.21484ZM155.99316,9.415C161.32324,4.49512,168.17383,2,176.355,2c6.14551,0,11.1499,1.43848,14.874,4.27539a26.92464,26.92464,0,0,1,8.04053,9.75879L187.228,21.63965a12.67683,12.67683,0,0,0-3.85205-4.90332,11.08372,11.08372,0,0,0-7.021-2.49609,13.25885,13.25885,0,0,0-10.08936,4.15625,14.41439,14.41439,0,0,0-3.87061,10.2041,14.40873,14.40873,0,0,0,3.87061,10.20313A13.25591,13.25591,0,0,0,176.355,42.96a11.09026,11.09026,0,0,0,7.021-2.49512,12.67757,12.67757,0,0,0,3.85449-4.9082l12.0415,5.53613a25.062,25.062,0,0,1-2.67236,4.38086,29.77506,29.77506,0,0,1-4.64551,4.75781,20.64576,20.64576,0,0,1-6.75537,3.61914A27.95526,27.95526,0,0,1,176.355,55.2002c-8.12939,0-14.96631-2.50781-20.32178-7.4541h0c-5.3335-4.9248-8.03809-11.36621-8.03809-19.14551C147.99512,20.76758,150.686,14.3125,155.99316,9.415Z"/>
            <path class="cls-1"
                  d="M210.436,49.21484h-.00049c5.73584,5.29883,12.97559,7.98535,21.51855,7.98535,8.542,0,15.78125-2.68652,21.51855-7.98535,5.76074-5.32031,8.68164-12.25586,8.68164-20.61426,0-8.35742-2.9209-15.293-8.68164-20.61426C247.73389,2.68652,240.49414,0,231.9541,0c-8.541,0-15.78076,2.68652-21.51855,7.98633-5.76074,5.32031-8.68164,12.25586-8.68164,20.61426C201.75391,36.96,204.6748,43.89551,210.436,49.21484ZM211.793,9.45508C217.14893,4.50879,223.93213,2,231.9541,2c8.021,0,14.8042,2.50879,20.16113,7.45508,5.33447,4.92773,8.03906,11.36914,8.03906,19.14551,0,7.77734-2.70459,14.21875-8.03906,19.14551-5.35547,4.94629-12.13867,7.4541-20.16113,7.4541-8.02344,0-14.80664-2.50781-20.16113-7.4541h-.00049c-5.334-4.92578-8.03857-11.36719-8.03857-19.14551C203.75391,20.82324,206.4585,14.38184,211.793,9.45508Z"/>
            <path class="cls-1"
                  d="M231.9541,42.96a13.0367,13.0367,0,0,0,9.97363-4.16016,14.50113,14.50113,0,0,0,3.82617-10.19922,14.50518,14.50518,0,0,0-3.82617-10.2002,14.035,14.035,0,0,0-19.94678,0,14.50057,14.50057,0,0,0-3.82666,10.2002A14.49485,14.49485,0,0,0,221.981,38.7998,13.03054,13.03054,0,0,0,231.9541,42.96Zm-8.50635-23.2002h0a12.03984,12.03984,0,0,1,17.01318,0,12.40639,12.40639,0,0,1,3.293,8.84082,12.40079,12.40079,0,0,1-3.293,8.83984,12.04043,12.04043,0,0,1-17.01367,0,12.39756,12.39756,0,0,1-3.293-8.83984A12.39981,12.39981,0,0,1,223.44775,19.75977Z"/>
            <path class="cls-1"
                  d="M293.07227,56.24023l6.082-26.73242,6.082,26.73242H323.748L339.60107.87988h-20.2998l-6.0708,29.13965L306.01709.87988H292.2915L285.07227,30.043,278.92529.87988H258.70752l15.853,55.36035Zm-15.769-53.36035L284.916,38.998l8.94092-36.11816h10.59473l8.94678,36.1416,7.52881-36.1416h16.02051L322.24023,54.24023H306.832l-7.67773-33.748-7.67773,33.748h-15.4082L261.36084,2.87988Z"/>
            <path class="cls-1"
                  d="M344.83594,49.21484c5.73633,5.29883,12.97656,7.98535,21.519,7.98535,8.5415,0,15.78076-2.68652,21.51807-7.98535,5.76074-5.31934,8.68164-12.25586,8.68164-20.61426,0-8.35742-2.9209-15.29395-8.68164-20.61426C382.13428,2.68652,374.89453,0,366.355,0c-8.54053,0-15.78076,2.68652-21.519,7.98633-5.76025,5.32031-8.68115,12.25586-8.68115,20.61426C336.15479,36.96,339.07568,43.89551,344.83594,49.21484Zm1.35742-39.75977C351.5498,4.50879,358.333,2,366.355,2c8.02051,0,14.80371,2.50879,20.16162,7.45508,5.3335,4.92676,8.03809,11.36816,8.03809,19.14551,0,7.77832-2.70459,14.21973-8.03809,19.14551-5.35645,4.94629-12.13965,7.4541-20.16162,7.4541-8.02344,0-14.80713-2.50781-20.16162-7.4541-5.334-4.92578-8.03857-11.36719-8.03857-19.14551C338.15479,20.82324,340.85938,14.38184,346.19336,9.45508Z"/>
            <path class="cls-1"
                  d="M366.355,42.96a13.03345,13.03345,0,0,0,9.97314-4.16016,14.50151,14.50151,0,0,0,3.82666-10.19922,14.50556,14.50556,0,0,0-3.82666-10.2002,14.035,14.035,0,0,0-19.94678,0,14.50223,14.50223,0,0,0-3.82666,10.2002,14.49818,14.49818,0,0,0,3.82666,10.19922A13.0316,13.0316,0,0,0,366.355,42.96Zm-8.50684-23.2002a12.03984,12.03984,0,0,1,17.01318,0,12.40514,12.40514,0,0,1,3.29346,8.84082,12.39905,12.39905,0,0,1-3.29346,8.83984,12.03984,12.03984,0,0,1-17.01318,0,12.39583,12.39583,0,0,1-3.29346-8.83984A12.39981,12.39981,0,0,1,357.84814,19.75977Z"/>
            <path class="cls-1"
                  d="M431.65332,24.0957a4.59725,4.59725,0,0,0,1.94092-3.97559,4.576,4.576,0,0,0-1.94092-3.89551A7.3358,7.3358,0,0,0,427.31445,14.96H416.47412V25.36035h10.84033A7.3358,7.3358,0,0,0,431.65332,24.0957ZM418.47412,16.96h8.84033a5.37991,5.37991,0,0,1,3.18066.89551,2.55183,2.55183,0,0,1,1.09912,2.26465,2.63259,2.63259,0,0,1-1.09912,2.34473,5.38685,5.38685,0,0,1-3.18066.89551h-8.84033Z"/>
            <path class="cls-1"
                  d="M418.47412,39.44043h4.18652L430.02,56.24023h20.69092l-9.97656-19.457a19.41633,19.41633,0,0,0,6.23535-5.76367,18.32759,18.32759,0,0,0,3.02441-10.81934,19.09669,19.09669,0,0,0-5.3623-13.77637C441.06348,2.74512,436.07129.87988,429.79395.87988H400.31445V56.24023h18.15967Zm-2,14.7998H402.31445V2.87988h27.47949c5.71582,0,10.22461,1.66113,13.40186,4.93652a17.1567,17.1567,0,0,1,4.79834,12.38379,16.38673,16.38673,0,0,1-2.65527,9.66113,17.10077,17.10077,0,0,1-6.38477,5.60059l-.91455.44824,9.39795,18.33008H431.32764l-7.35937-16.7998h-7.49414Z"/>
            <path class="cls-1"
                  d="M472.71387,40.77051l1.89941-2.56641L486.126,56.24023h40.2666V.87988H508.23291V56.10547L486.57764,26.71094,507.5752.87988H485.19336L472.71387,18.708V.87988H454.55371V56.24023h18.16016Zm37.519-37.89062h14.15967V54.24023H510.23291Zm-39.519,51.36035H456.55371V2.87988h14.16016V25.05273L486.23438,2.87988h17.1377L484.04932,26.65039,504.375,54.24023H487.22168l-12.4873-19.56348-4.02051,5.43359Z"/>
            <path class="cls-1"
                  d="M551.19238,31.27344l18.1709,24.9668h17.0293V.87988H568.23242V24.1084L551.1792.87988H533.03271V56.24023h18.15967Zm-2,22.9668H535.03271V2.87988H550.1665l20.06592,27.332V2.87988h14.16016V54.24023H570.38184L549.19238,25.127Z"/>
            <path class="cls-1"
                  d="M598.92578,49.38574c5.78809,5.18555,13.05078,7.81445,21.58691,7.81445a32.61813,32.61813,0,0,0,25.1416-11.12891l.2583-.28613V22.56055H631.21777l14.063-7.19727-.4292-.88086a26.42726,26.42726,0,0,0-9.09668-10.30957C631.68359,1.4043,626.55518,0,620.5127,0c-8.53516,0-15.79785,2.62988-21.58691,7.81543-5.82178,5.21387-8.77344,12.207-8.77344,20.78516S593.104,44.17188,598.92578,49.38574Zm1.334-40.08008C605.6709,4.458,612.48535,2,620.5127,2c5.63379,0,10.38379,1.28711,14.11719,3.82715a24.64791,24.64791,0,0,1,7.97607,8.6582L630.7793,20.53809a13.78393,13.78393,0,0,0-3.70508-4.13672,10.66272,10.66272,0,0,0-6.56152-2.16113,13.26139,13.26139,0,0,0-10.08984,4.15625,14.4173,14.4173,0,0,0-3.87012,10.2041,14.41376,14.41376,0,0,0,3.87012,10.20313A13.25845,13.25845,0,0,0,620.5127,42.96a17.19518,17.19518,0,0,0,4.92725-.76172,12.74587,12.74587,0,0,0,3.99219-1.83789l.40039-.2998V36.64063H619.9126V24.56055h24V45.0127a30.66647,30.66647,0,0,1-23.3999,10.1875c-8.02832,0-14.84229-2.458-20.25293-7.30469h0c-5.37988-4.81738-8.10742-11.30957-8.10742-19.29492S594.87988,14.123,600.25977,9.30566Zm27.57275,29.335v.39258a12.47586,12.47586,0,0,1-2.96777,1.249,15.15479,15.15479,0,0,1-4.35205.67773,11.18893,11.18893,0,0,1-8.63086-3.52344,12.316,12.316,0,0,1-3.3291-8.83594,12.31991,12.31991,0,0,1,3.3291-8.83691,11.19179,11.19179,0,0,1,8.63086-3.52344,8.58871,8.58871,0,0,1,5.35742,1.75781,11.58434,11.58434,0,0,1,3.57764,4.30762l.12012.25488H617.9126V38.64063Z"/>
            <path class="cls-1"
                  d="M121.19824,119.70215h0a51.68609,51.68609,0,0,0-14.626-4.45312,25.6703,25.6703,0,0,1-5.272-1.18945c-1.26367-.458-1.54053-.8623-1.54053-.97949,0-.3457,0-1.39941,3.08008-1.39941a24.42133,24.42133,0,0,1,15.0752,5.07617l.79834.60547,9.82471-13.00781-.74609-.6084c-6.23535-5.08691-14.06543-7.666-23.27246-7.666-7.15088,0-12.85107,1.834-16.94238,5.45117a17.1345,17.1345,0,0,0-6.21777,13.22852,16.02257,16.02257,0,0,0,3.2998,10.30664,17.35437,17.35437,0,0,0,7.89111,5.67773,59.6634,59.6634,0,0,0,8.86865,2.35938c2.89648.53223,5.38379,1.041,7.39307,1.51074,1.88379.44043,2.30762.959,2.30762,1.10645,0,1.55371-2.67529,1.87988-4.91992,1.87988A23.16509,23.16509,0,0,1,89.69043,130.998l-.84229-.80469L79.27246,143.873l.65869.5918c6.45215,5.7959,15.021,8.73535,25.46826,8.73535,7.3999,0,13.30225-1.71484,17.54346-5.09766,4.311-3.4375,6.49658-8.30273,6.49658-14.46191a15.52783,15.52783,0,0,0-2.36035-8.584A14.67475,14.67475,0,0,0,121.19824,119.70215Zm.49756,26.83594c-3.87842,3.09375-9.36084,4.66211-16.29639,4.66211-9.58008,0-17.46875-2.57031-23.46484-7.64258l7.22949-10.32812a25.03727,25.03727,0,0,0,17.03564,6.37109c4.5918,0,6.91992-1.30566,6.91992-3.87988,0-2.1543-2.8999-2.83105-3.85205-3.05371-2.04053-.47754-4.55957-.99219-7.48779-1.53027a57.587,57.587,0,0,1-8.57129-2.28125,15.37087,15.37087,0,0,1-6.98877-5.041,14.07556,14.07556,0,0,1-2.86035-9.05469,15.02135,15.02135,0,0,1,5.543-11.73047c3.71436-3.28418,8.96875-4.94922,15.61719-4.94922,8.36426,0,15.50781,2.22559,21.25244,6.61816l-7.45654,9.873a26.3228,26.3228,0,0,0-15.47559-4.89062c-4.19873,0-5.08008,1.84863-5.08008,3.39941,0,1.21.96191,2.17188,2.85742,2.85938a27.7135,27.7135,0,0,0,5.689,1.292,49.70843,49.70843,0,0,1,14.01514,4.26758,12.71224,12.71224,0,0,1,5.07861,4.64453,13.56191,13.56191,0,0,1,2.03955,7.49707C127.43945,139.23828,125.56055,143.457,121.6958,146.53809Z"/>
            <path class="cls-1"
                  d="M150.87891,136.77051l1.89941-2.56641,11.5127,18.03613h22.207l-21.75488-29.5293,17.65332-21.71777,18.2417,29.332v21.915h18.15967v-21.917l20.63232-33.44336H218.88281l-9.17187,16.915-9.32227-16.915H163.3584L150.87891,114.707V96.87988H132.71875v55.36035h18.16016ZM199.207,98.87988l10.51855,19.085,10.34766-19.085h15.77295l-18.89941,30.63477-.14893.24219v20.4834H202.63818V129.75488l-19.20068-30.875Zm-50.32812,51.36035H134.71875V98.87988h14.16016v22.17285l15.52051-22.17285h17.1377l-19.32227,23.77051L182.54,150.24023H165.38672l-12.4873-19.56348-4.02051,5.43359Z"/>
            <path class="cls-1"
                  d="M239.51709,96.87988v55.36035H277.917V136.16016H257.67676V96.87988Zm36.3999,41.28027v12.08008h-34.3999V98.87988h14.15967v39.28027Z"/>
            <path class="cls-1"
                  d="M282.39648,152.24023h18.16016V96.87988H282.39648Zm2-53.36035h14.16016v51.36035H284.39648Z"/>
            <path class="cls-1"
                  d="M360.55664,152.24023V96.87988H342.39648V120.1084L325.34277,96.87988H307.19629v55.36035h18.16016v-24.9668l18.1709,24.9668ZM323.35645,121.127v29.11328H309.19629V98.87988h15.13379l20.06641,27.332v-27.332h14.16016v51.36035H344.54492Z"/>
            <path class="cls-1"
                  d="M367.19629,152.24023h42.48047V136.16016H385.35645v-3.83984h23.75977V116.24023H385.35645V112.96h24.32031V96.87988H367.19629Zm2-53.36035h38.48047V110.96H383.35645v7.28027h23.75977v12.08008H383.35645v7.83984h24.32031v12.08008H369.19629Z"/>
            <path class="cls-1"
                  d="M467.84717,117.3623a4.0104,4.0104,0,0,0,1.26807-3.002,3.8084,3.8084,0,0,0-1.30176-2.95312,4.28443,4.28443,0,0,0-2.89844-1.08691h-13.48v8.24023h13.48A4.1193,4.1193,0,0,0,467.84717,117.3623Zm-14.41211-5.042h11.48a2.31,2.31,0,0,1,1.58105.5918,1.7917,1.7917,0,0,1,.61914,1.44824,2.02806,2.02806,0,0,1-.65186,1.55859,2.154,2.154,0,0,1-1.54834.6416h-11.48Z"/>
            <path class="cls-1"
                  d="M486.55518,136.75977a14.72391,14.72391,0,0,0-3.09619-9.38086,12.39885,12.39885,0,0,0-4.79687-3.76953,12.369,12.369,0,0,0,4.07764-3.38867,13.7241,13.7241,0,0,0,2.77539-8.74023,14.16355,14.16355,0,0,0-4.36621-10.14062c-2.90381-2.959-7.10059-4.46-12.47412-4.46H435.27539v55.36035h34.51953c5.32666,0,9.499-1.53027,12.40039-4.54687A15.26022,15.26022,0,0,0,486.55518,136.75977Zm-16.76025,13.48047H437.27539V98.87988H468.6748c4.81641,0,8.5332,1.29883,11.04639,3.86035a12.07373,12.07373,0,0,1,3.79395,8.74023,11.78319,11.78319,0,0,1-2.34424,7.5,10.1507,10.1507,0,0,1-5.99072,3.76367l-5.34961,1.17773,5.42041.78809a9.99564,9.99564,0,0,1,6.63965,3.91016,12.772,12.772,0,0,1,2.66455,8.13965,13.15273,13.15273,0,0,1-3.80078,9.54688C478.24414,148.917,474.55664,150.24023,469.79492,150.24023Z"/>
            <path class="cls-1"
                  d="M465.395,130h-13.96v8.7998h13.96a4.90165,4.90165,0,0,0,3.437-1.18359,4.13183,4.13183,0,0,0,1.32324-3.17578,4.24509,4.24509,0,0,0-1.34766-3.16211A4.74539,4.74539,0,0,0,465.395,130Zm2.0835,6.14355h0a2.94976,2.94976,0,0,1-2.0835.65625h-11.96V132h11.96a2.78131,2.78131,0,0,1,2.02588.71973,2.25408,2.25408,0,0,1,.73438,1.7207A2.15313,2.15313,0,0,1,467.47852,136.14355Z"/>
            <path class="cls-1"
                  d="M484.83984,152.24023H505.333L507.25293,146h17.72266l1.91992,6.24023h20.49316l-20.417-55.36035H505.25684Zm40.7373-53.36035,18.94238,51.36035H528.373L526.45313,144H505.77637l-1.9209,6.24023H487.709l18.94238-51.36035Z"/>
            <path class="cls-1" d="M516.11426,110.31348l-6.63281,21.60645h13.26611Zm0,6.81445,3.92725,12.792h-7.854Z"/>
            <path class="cls-1"
                  d="M594.48926,127.01953h0a18.32759,18.32759,0,0,0,3.02441-10.81934,19.09669,19.09669,0,0,0-5.3623-13.77637c-3.56836-3.67871-8.56055-5.54395-14.83789-5.54395H547.834v55.36035h18.15967v-16.7998h4.18652l7.35938,16.7998h20.69092l-9.97656-19.457A19.41633,19.41633,0,0,0,594.48926,127.01953Zm-8.01562,4.44238-.91455.44824,9.39795,18.33008H578.84717l-7.35937-16.7998h-7.49414v16.7998H549.834V98.87988h27.47949c5.71582,0,10.22461,1.66113,13.40186,4.93652a17.1567,17.1567,0,0,1,4.79834,12.38379,16.38673,16.38673,0,0,1-2.65527,9.66113A17.10077,17.10077,0,0,1,586.47363,131.46191Z"/>
            <path class="cls-1"
                  d="M579.17285,112.22461A7.3358,7.3358,0,0,0,574.834,110.96H563.99365v10.40039H574.834a7.3358,7.3358,0,0,0,4.33887-1.26465h0a4.96021,4.96021,0,0,0,0-7.87109Zm-1.1582,6.24023a5.381,5.381,0,0,1-3.18066.89551h-8.84033V112.96H574.834a5.37991,5.37991,0,0,1,3.18066.89551,2.55183,2.55183,0,0,1,1.09912,2.26465A2.63259,2.63259,0,0,1,578.01465,118.46484Z"/>
            <path class="cls-1"
                  d="M605.9707,101.53125a17.1345,17.1345,0,0,0-6.21777,13.22852,16.02257,16.02257,0,0,0,3.2998,10.30664,17.35437,17.35437,0,0,0,7.89111,5.67773,59.6634,59.6634,0,0,0,8.86865,2.35938c2.89648.53223,5.38379,1.041,7.39307,1.51074,1.88379.44043,2.30762.959,2.30762,1.10645,0,1.55371-2.67529,1.87988-4.91992,1.87988A23.16509,23.16509,0,0,1,608.084,130.998l-.84229-.80469L597.666,143.873l.65869.5918c6.45215,5.7959,15.021,8.73535,25.46826,8.73535,7.3999,0,13.30225-1.71484,17.54346-5.09766,4.311-3.4375,6.49658-8.30273,6.49658-14.46191a15.52783,15.52783,0,0,0-2.36035-8.584,14.67475,14.67475,0,0,0-5.88086-5.35449,51.68609,51.68609,0,0,0-14.626-4.45312,25.6703,25.6703,0,0,1-5.272-1.18945c-1.26367-.458-1.54053-.8623-1.54053-.97949,0-.3457,0-1.39941,3.08008-1.39941a24.42133,24.42133,0,0,1,15.0752,5.07617l.79834.60547,9.82471-13.00781-.74609-.6084c-6.23535-5.08691-14.06543-7.666-23.27246-7.666C615.76221,96.08008,610.062,97.91406,605.9707,101.53125Zm30.73828,13.04a26.3228,26.3228,0,0,0-15.47559-4.89062c-4.19873,0-5.08008,1.84863-5.08008,3.39941,0,1.21.96191,2.17188,2.85742,2.85938a27.7135,27.7135,0,0,0,5.689,1.292,49.70843,49.70843,0,0,1,14.01514,4.26758,12.71224,12.71224,0,0,1,5.07861,4.64453,13.56191,13.56191,0,0,1,2.03955,7.49707c0,5.59766-1.87891,9.81641-5.74365,12.89746-3.87842,3.09375-9.36084,4.66211-16.29639,4.66211-9.58008,0-17.46875-2.57031-23.46484-7.64258l7.22949-10.32812a25.03727,25.03727,0,0,0,17.03564,6.37109c4.5918,0,6.91992-1.30566,6.91992-3.87988,0-2.1543-2.8999-2.83105-3.85205-3.05371-2.04053-.47754-4.55957-.99219-7.48779-1.53027a57.587,57.587,0,0,1-8.57129-2.28125,15.37087,15.37087,0,0,1-6.98877-5.041,14.07556,14.07556,0,0,1-2.86035-9.05469,15.02135,15.02135,0,0,1,5.543-11.73047c3.71436-3.28418,8.96875-4.94922,15.61719-4.94922,8.36426,0,15.50781,2.22559,21.25244,6.61816Z"/>
            <path class="cls-1"
                  d="M51.71875,199.98633h-.00049C45.97949,194.68652,38.73975,192,30.2002,192c-8.541,0-15.78076,2.68652-21.51855,7.98633C2.9209,205.30566,0,212.24121,0,220.60059c0,8.36035,2.9209,15.2959,8.68164,20.61426,5.73584,5.29883,12.97559,7.98535,21.51855,7.98535,8.541,0,15.78125-2.68652,21.51855-7.98535,5.76025-5.32031,8.68115-12.25586,8.68115-20.61426C60.3999,212.24316,57.479,205.30762,51.71875,199.98633Zm-1.35742,39.75977c-5.35547,4.94629-12.13916,7.4541-20.16113,7.4541-8.02344,0-14.80664-2.50781-20.16162-7.4541C4.70459,234.82129,2,228.37988,2,220.60059c0-7.77832,2.70459-14.21973,8.03906-19.14551C15.395,196.50879,22.17822,194,30.2002,194c8.02051,0,14.80371,2.50879,20.16162,7.45508h-.00049c5.334,4.92773,8.03857,11.36914,8.03857,19.14551C58.3999,228.37793,55.69531,234.81934,50.36133,239.74609Z"/>
            <path class="cls-1"
                  d="M30.2002,206.24023a13.03378,13.03378,0,0,0-9.97363,4.16016,15.50665,15.50665,0,0,0,0,20.39941A13.03087,13.03087,0,0,0,30.2002,234.96a13.03491,13.03491,0,0,0,9.97314-4.16016,15.50665,15.50665,0,0,0,0-20.39941A13.0371,13.0371,0,0,0,30.2002,206.24023Zm8.50635,23.2002A10.96967,10.96967,0,0,1,30.2002,232.96a10.96718,10.96718,0,0,1-8.50684-3.51953,13.51138,13.51138,0,0,1,0-17.68066,10.97,10.97,0,0,1,8.50684-3.51953,10.97179,10.97179,0,0,1,8.50635,3.51953,13.51138,13.51138,0,0,1,0,17.68066Z"/>
            <path class="cls-1"
                  d="M99.35938,216.1084,82.30566,192.87988H64.15918v55.36035H82.31934v-24.9668l18.1709,24.9668h17.0293V192.87988H99.35938Zm2-21.22852h14.16016v51.36035H101.50879L80.31934,217.127v29.11328H66.15918V194.87988H81.293l20.06641,27.332Z"/>
            <path class="cls-1"
                  d="M182.07715,215.70215h0a51.68609,51.68609,0,0,0-14.626-4.45312,25.6703,25.6703,0,0,1-5.272-1.18945c-1.26367-.458-1.54053-.8623-1.54053-.97949,0-.3457,0-1.39941,3.08008-1.39941a24.42133,24.42133,0,0,1,15.0752,5.07617l.79834.60547,9.82471-13.00781-.74609-.6084c-6.23535-5.08691-14.06543-7.666-23.27246-7.666-7.15088,0-12.85107,1.834-16.94238,5.45117a17.1345,17.1345,0,0,0-6.21777,13.22852,16.02257,16.02257,0,0,0,3.2998,10.30664,17.35437,17.35437,0,0,0,7.89111,5.67773,59.6634,59.6634,0,0,0,8.86865,2.35938c2.89648.53223,5.38379,1.041,7.39307,1.51074,1.88379.44043,2.30762.959,2.30762,1.10645,0,1.55371-2.67529,1.87988-4.91992,1.87988a23.16509,23.16509,0,0,1-16.50928-6.60254l-.84229-.80469L140.15137,239.873l.65869.5918c6.45215,5.7959,15.021,8.73535,25.46826,8.73535,7.3999,0,13.30225-1.71484,17.54346-5.09766,4.311-3.4375,6.49658-8.30273,6.49658-14.46191a15.52783,15.52783,0,0,0-2.36035-8.584A14.67475,14.67475,0,0,0,182.07715,215.70215Zm.49756,26.83594c-3.87842,3.09375-9.36084,4.66211-16.29639,4.66211-9.58008,0-17.46875-2.57031-23.46484-7.64258l7.22949-10.32812a25.03727,25.03727,0,0,0,17.03564,6.37109c4.5918,0,6.91992-1.30566,6.91992-3.87988,0-2.15332-2.8999-2.83105-3.85205-3.05371-2.04053-.47754-4.55957-.99219-7.48779-1.53027a57.587,57.587,0,0,1-8.57129-2.28125,15.37087,15.37087,0,0,1-6.98877-5.041,14.07556,14.07556,0,0,1-2.86035-9.05469,15.02135,15.02135,0,0,1,5.543-11.73047c3.71436-3.28418,8.96875-4.94922,15.61719-4.94922,8.36426,0,15.50781,2.22559,21.25244,6.61816l-7.45654,9.873a26.3228,26.3228,0,0,0-15.47559-4.89062c-4.19873,0-5.08008,1.84863-5.08008,3.39941,0,1.21.96191,2.17188,2.85742,2.85938a27.7135,27.7135,0,0,0,5.689,1.292A49.70843,49.70843,0,0,1,181.2002,217.499a12.71224,12.71224,0,0,1,5.07861,4.64453,13.56191,13.56191,0,0,1,2.03955,7.49707C188.31836,235.23828,186.43945,239.457,182.57471,242.53809Z"/>
            <path class="cls-1"
                  d="M193.59766,248.24023h18.16016V192.87988H193.59766Zm2-53.36035h14.16016v51.36035H195.59766Z"/>
            <path class="cls-1"
                  d="M215.51758,208.96h14.32031v39.28027h18.15967V208.96H262.2373V192.87988H215.51758Zm2-14.08008H260.2373V206.96H245.99756v39.28027H231.83789V206.96H217.51758Z"/>
            <path class="cls-1"
                  d="M265.99658,248.24023h42.48V232.16016H284.15625v-3.83984H307.9165V212.24023H284.15625V208.96h24.32031V192.87988h-42.48Zm2-53.36035h38.48V206.96H282.15625v7.28027H305.9165v12.08008H282.15625v7.83984h24.32031v12.08008h-38.48Z"/>
            <path class="cls-1"
                  d="M361.55518,208.24023a9.00655,9.00655,0,0,1,5.7793,2.06445,10.49122,10.49122,0,0,1,3.58936,5.00488l.34961,1.07324,15.83057-7.36816-.39355-.89648a28.83878,28.83878,0,0,0-9.06934-11.43359C373.56055,193.57617,368.14844,192,361.55518,192c-8.69971,0-16.00684,2.67383-21.71826,7.94531-5.73437,5.292-8.6416,12.24121-8.6416,20.65527,0,8.35938,2.9209,15.2959,8.68164,20.61426,5.73633,5.29883,13.02979,7.98535,21.67822,7.98535a29.95731,29.95731,0,0,0,9.4751-1.45117,22.65267,22.65267,0,0,0,7.40479-3.98047,31.87486,31.87486,0,0,0,4.95557-5.082,27.225,27.225,0,0,0,3.32227-5.68945l.3877-.89648-15.8291-7.27832-.34766,1.06934a10.492,10.492,0,0,1-3.58936,5.00488,9.01191,9.01191,0,0,1-5.7793,2.06348,11.18787,11.18787,0,0,1-8.63037-3.52344,13.39033,13.39033,0,0,1,0-17.67285A11.19,11.19,0,0,1,361.55518,208.24023Zm-13.96,12.36035a14.40873,14.40873,0,0,0,3.87061,10.20313A13.25591,13.25591,0,0,0,361.55518,234.96a11.09026,11.09026,0,0,0,7.021-2.49512,12.67757,12.67757,0,0,0,3.85449-4.9082l12.0415,5.53613a25.062,25.062,0,0,1-2.67236,4.38086,29.77506,29.77506,0,0,1-4.64551,4.75781,20.64575,20.64575,0,0,1-6.75537,3.61914,27.95526,27.95526,0,0,1-8.84375,1.34961c-8.12939,0-14.96631-2.50781-20.32178-7.4541-5.3335-4.9248-8.03809-11.36621-8.03809-19.14551,0-7.833,2.69092-14.28809,7.998-19.18555C346.52344,196.49512,353.374,194,361.55518,194c6.14551,0,11.1499,1.43848,14.874,4.27539a26.92465,26.92465,0,0,1,8.04053,9.75879l-12.0415,5.60547a12.67684,12.67684,0,0,0-3.85205-4.90332,11.08372,11.08372,0,0,0-7.021-2.49609,13.25885,13.25885,0,0,0-10.08936,4.15625A14.41439,14.41439,0,0,0,347.59521,220.60059Z"/>
            <path class="cls-1"
                  d="M389.83447,248.24023h18.15967V192.87988H389.83447Zm2-53.36035h14.15967v51.36035H391.83447Z"/>
            <path class="cls-1"
                  d="M449.834,216.1084l-17.05322-23.22852H414.63428v55.36035h18.15967v-24.9668l18.1709,24.9668h17.0293V192.87988H449.834Zm2-21.22852h14.16016v51.36035H451.9834L430.79395,217.127v29.11328H416.63428V194.87988h15.13379l20.06592,27.332Z"/>
            <path class="cls-1"
                  d="M474.63428,248.24023h42.48V232.16016H492.79395v-3.83984H516.5542V212.24023H492.79395V208.96h24.32031V192.87988h-42.48Zm2-53.36035h38.48V206.96H490.79395v7.28027H514.5542v12.08008H490.79395v7.83984h24.32031v12.08008h-38.48Z"/>
            <path class="cls-1"
                  d="M554.99365,216.56836,546.333,192.87988H522.31348v55.36035h18.16016V220.72266l10.22461,27.51758h8.59082l10.22461-27.51758v27.51758h18.16016V192.87988H563.6543Zm30.68018-21.68848v51.36035H571.51367V209.59766l-13.61523,36.64258h-5.80957l-13.61523-36.64258v36.64258H524.31348V194.87988h20.62109l10.05908,27.5127,10.05908-27.5127Z"/>
            <path class="cls-1"
                  d="M630.25,192.87988H608.53613l-20.41748,55.36035h20.49316L610.53174,242h17.72266l1.91992,6.24023H650.668ZM629.73193,240H609.0542l-1.91992,6.24023H590.98779l18.94287-51.36035h18.92578l18.94238,51.36035h-16.147Z"/>
            <path class="cls-1"
                  d="M612.76025,227.91992h13.26563l-6.63281-21.60645Zm2.70605-2,3.92676-12.792,3.92676,12.792Z"/>
        </g>
    </g>
</svg>